# xmcd
#
# Track frame offsets:
# 150
# 2902
# 22322
# 41912
# 59795
# 79885
# 90402
# 113342
# 135447
# 152297
# 174215
# 176672
# 195747
# 217235
# 233860
# 250695
# 270870
# 272160
# 294298
#
# Disc length: 4166 seconds
#
#
# Revision: 1
# Processed by: cddbd v1.5.1PL2 Copyright (c) Steve Scherf et al.
# Submitted via: FreeRIP 2.945 
#
DISCID=02104413
DTITLE=Murphy Lee - Murphy's Law
DYEAR=2003
DGENRE=Rap
TTITLE0=Be Myself (Intro)
TTITLE1=Don't Blow It (feat. City Spud)
TTITLE2=Hold Up (feat. Nelly)
TTITLE3=Granpa Gametight
TTITLE4=Luv Me Baby (feat. Jazze Pha and Sleepy Brown)
TTITLE5="Murphy's Law"
TTITLE6=Cool Wit It (feat. St. Lunatics)
TTITLE7=This Goes Out (feat. Nelly, Roscoe, Cardin, Lil' Jon And Lil' Wayne)
TTITLE8=Wat Da Hook Gon Be (feat. Jermaine Dupri)
TTITLE9=So X-Treme (feat. King Jacob and The Professor)
TTITLE10="How Many Kids You Got"
TTITLE11=I Better Go (feat. Avery Storm)
TTITLE12=Red Hot Riplets (feat. St. Lunatics)
TTITLE13=Regular Guy (feat. Seven)
TTITLE14=God's Don't Chill (feat. King Jacob and The Professor)
TTITLE15=Murphey Lee (feat. Zee)
TTITLE16="Head From A Midget"
TTITLE17=Shake Ya Tailfeather (feat. Nelly and  P.Diddy)
TTITLE18=Same Ol' Dirty (feat. Toya)
EXTD=
EXTT0=
EXTT1=
EXTT2=
EXTT3=
EXTT4=
EXTT5=
EXTT6=
EXTT7=
EXTT8=
EXTT9=
EXTT10=
EXTT11=
EXTT12=
EXTT13=
EXTT14=
EXTT15=
EXTT16=
EXTT17=
EXTT18=
PLAYORDER=
